<mxfile host="65bd71144e">
    <diagram id="4xJcJKdS-7dcJ8xqdbvF" name="ページ1">
        <mxGraphModel dx="302" dy="216" grid="1" gridSize="1" guides="1" tooltips="1" connect="1" arrows="1" fold="1" page="1" pageScale="1" pageWidth="827" pageHeight="1169" math="0" shadow="0">
            <root>
                <mxCell id="0"/>
                <mxCell id="1" parent="0"/>
                <mxCell id="2" value="" style="shape=cross;whiteSpace=wrap;html=1;rotation=45;fillColor=#a20025;fontColor=#ffffff;strokeColor=none;" vertex="1" parent="1">
                    <mxGeometry x="290" y="200" width="80" height="80" as="geometry"/>
                </mxCell>
            </root>
        </mxGraphModel>
    </diagram>
</mxfile>